<?xml version="1.0" encoding="utf-8"?>
<!-- Generator: Adobe Illustrator 22.0.1, SVG Export Plug-In . SVG Version: 6.00 Build 0)  -->
<svg version="1.1" id="Layer_1" xmlns="http://www.w3.org/2000/svg" xmlns:xlink="http://www.w3.org/1999/xlink" x="0px" y="0px"
	 viewBox="0 0 288 560" style="enable-background:new 0 0 288 560;" xml:space="preserve">
<style type="text/css">
	.st0{fill:#FF00FF;stroke:#000000;stroke-miterlimit:10;}
	.st1{fill:#00FFFF;stroke:#000000;stroke-miterlimit:10;}
	.st2{fill:#FBB03B;stroke:#000000;stroke-miterlimit:10;}
	.st3{fill:#FFFF00;stroke:#000000;stroke-miterlimit:10;}
	.st4{fill:#0000FF;stroke:#000000;stroke-miterlimit:10;}
	.st5{fill:#00FF00;stroke:#000000;stroke-miterlimit:10;}
	.st6{fill:#FF00FF;}
</style>
<rect x="-1.6" y="0" width="289.6" height="560"/>
<path class="st0" d="M-0.6,124.5C33.6,402.4,55.8,479.6,70.7,479c27.5-1.3,34.5-269.9,48.6-269.5c15.9,0.4,15,341.5,30.7,341.9
	c16.1,0.5,35.5-356.9,55.8-356.4c14.4,0.3,15.2,183.8,31.3,184.4c11.8,0.5,26.6-97.1,42.1-244.1"/>
<path class="st1" d="M0.4,111.9c25.5,178.8,49.5,292.6,69.4,291.7c28.7-1.4,36.2-241.4,50.9-240.9c17.4,0.5,16.3,337.4,31.3,337.9
	c16,0.5,37-382.5,55.8-381.9c14,0.4,14.7,212,31.3,212.5c14.8,0.4,30.7-177.7,37.3-177.1c4,0.4,0.6,64.1,2.5,64.2
	c1.2,0.1,4.1-28.9,9-92.8"/>
<path class="st0" d="M-1.1,77.8C23,178.5,48.2,255.2,69.4,253.4c26.1-2.1,34-122.1,48.9-121.2c17.7,1,17.2,170.8,32.3,171.6
	c16.4,0.9,36.1-199.4,55.1-198.4c13.9,0.7,17.3,107.8,30.7,107.9c11.9,0.1,20.3-84.8,30-84.1c5.9,0.4,7.1,33,10.2,33
	c2.3,0,4.9-18.1,7.1-84.2"/>
<path class="st2" d="M1.3,91.2c24.1,151.7,49.3,267.3,70.6,264.7c26.1-3.2,34-184,48.9-182.7c17.7,1.5,17.2,257.5,32.3,258.7
	c16.4,1.3,36.1-300.5,55.1-299.1c13.9,1,17.3,162.5,30.7,162.6c11.9,0.1,20.3-127.9,30-126.8c5.9,0.6,7.1,49.8,10.2,49.7
	c2.3-0.1,4.9-27.3,7.1-127"/>
<path class="st3" d="M0.4,60.9c32.7,150.3,55,193.6,70.6,190.5c24.5-4.9,32-123.9,48.8-122.1c18.9,2.1,22.1,153.4,37.8,154.6
	c17.8,1.3,32.7-190,49.6-188.3c13.3,1.3,16.5,120.4,29.9,120.8c11.9,0.4,21.3-92.5,30.7-90.9c4.8,0.8,5.8,28.6,8.7,28.6
	c2.3,0,5.3-17.9,8.7-93.1"/>
<path class="st4" d="M0.6,30.4c32.7,133.4,55,171.9,70.6,169.2c24.5-4.3,32-110,48.8-108.4c18.9,1.8,22.1,136.2,37.8,137.2
	c17.8,1.1,32.7-168.7,49.6-167.2c13.3,1.2,16.5,106.9,29.9,107.3c11.9,0.3,21.3-82.1,30.7-80.7c4.8,0.7,5.8,25.4,8.7,25.4
	c2.3,0,5.3-15.9,8.7-82.7"/>
<path class="st5" d="M2.7,12.4c30.6,125.3,52.1,162.2,67.5,161.1c24.8-1.8,34-102.8,52-101.8c19,1.1,22.4,114.7,37.8,115.1
	c17.5,0.5,32-145.1,49.6-144.4c13.1,0.5,17,82,31.5,82.2c12.2,0.2,21.1-57.4,29.1-56.3c6.4,0.9,5.6,38.1,7.9,38.2
	c1.8,0.1,4.7-23.2,9.4-94.2"/>
<path class="st0" d="M2.7,0c32.7,91.1,55,117.4,70.6,115.5c24.5-2.9,32-75.1,48.8-74c18.9,1.2,22.1,93,37.8,93.7
	C177.7,136,192.6,20,209.5,21c13.3,0.8,16.5,73,29.9,73.2c11.9,0.2,21.3-56.1,30.7-55.1c4.8,0.5,5.8,17.4,8.7,17.3
	c2.3,0,5.3-10.8,8.7-56.4"/>
<path d="M7,560h-8.6V0H7c0,72.1,0,144.3,0,216.4C7,331,7,445.5,7,560z"/>
<rect x="279.4" y="0" width="8.6" height="560"/>
<rect x="138.7" y="411.4" transform="matrix(-1.836970e-16 1 -1 -1.836970e-16 698.7109 412.6831)" width="8.6" height="288.6"/>
<rect x="139.4" y="-140" transform="matrix(-1.836970e-16 1 -1 -1.836970e-16 147.9784 -139.3725)" width="8.6" height="288.6"/>
<path d="M-145.7,302.7"/>
<path class="st6" d="M74.6,440.8"/>
</svg>
